<svg viewBox="0 0 100 100" fill="none" xmlns="http://www.w3.org/2000/svg">
	<rect x="1" y="1" width="98" height="98" stroke="#006DA2" stroke-width="2" transform="matrix(1, 0, 0, 1, 1.7763568394002505e-15, 0)"/>
	<path d="M 70.587 71.574 C 65.379 71.574 60.233 70.439 55.149 68.168 C 50.066 65.897 45.441 62.679 41.274 58.512 C 37.108 54.345 33.889 49.72 31.618 44.637 C 29.347 39.554 28.212 34.408 28.212 29.199 C 28.212 28.449 28.462 27.824 28.962 27.324 C 29.462 26.824 30.087 26.574 30.837 26.574 L 40.962 26.574 C 41.545 26.574 42.066 26.772 42.524 27.168 C 42.983 27.564 43.254 28.033 43.337 28.574 L 44.962 37.324 C 45.045 37.991 45.024 38.554 44.899 39.012 C 44.774 39.47 44.545 39.866 44.212 40.199 L 38.149 46.324 C 38.983 47.866 39.972 49.356 41.118 50.793 C 42.264 52.231 43.524 53.616 44.899 54.949 C 46.191 56.241 47.545 57.439 48.962 58.543 C 50.379 59.647 51.879 60.658 53.462 61.574 L 59.337 55.699 C 59.712 55.324 60.201 55.043 60.806 54.856 C 61.41 54.668 62.004 54.616 62.587 54.699 L 71.212 56.449 C 71.795 56.616 72.274 56.918 72.649 57.356 C 73.024 57.793 73.212 58.283 73.212 58.824 L 73.212 68.949 C 73.212 69.699 72.962 70.324 72.462 70.824 C 71.962 71.324 71.337 71.574 70.587 71.574 Z M 35.774 41.574 L 39.899 37.449 L 38.837 31.574 L 33.274 31.574 C 33.483 33.283 33.774 34.97 34.149 36.637 C 34.524 38.304 35.066 39.949 35.774 41.574 Z M 58.149 63.949 C 59.774 64.658 61.431 65.22 63.118 65.637 C 64.806 66.054 66.504 66.324 68.212 66.449 L 68.212 60.949 L 62.337 59.762 L 58.149 63.949 Z" fill="#006DA2" transform="matrix(1, 0, 0, 1, 1.7763568394002505e-15, 0)"/>
</svg>